<svg xmlns="http://www.w3.org/2000/svg" viewBox="0 0 200 200" aria-hidden="true">
  <defs>
    <linearGradient id="sigma-star-top" x1="30%" y1="0%" x2="70%" y2="100%">
      <stop offset="0%" stop-color="#C4B5FD"/>
      <stop offset="40%" stop-color="#7C3AED"/>
      <stop offset="100%" stop-color="#4C1D95"/>
    </linearGradient>
    <linearGradient id="sigma-star-edge" x1="0%" y1="50%" x2="100%" y2="50%">
      <stop offset="0%" stop-color="#5B21B6"/>
      <stop offset="100%" stop-color="#A78BFA"/>
    </linearGradient>
    <filter id="sigma-star-soft" x="-25%" y="-25%" width="150%" height="150%">
      <feGaussianBlur in="SourceAlpha" stdDeviation="1.4" result="b"/>
      <feOffset dx="0" dy="2" in="b" result="o"/>
      <feComponentTransfer in="o" result="a">
        <feFuncA type="linear" slope="0.2"/>
      </feComponentTransfer>
      <feMerge>
        <feMergeNode in="a"/>
        <feMergeNode in="SourceGraphic"/>
      </feMerge>
    </filter>
  </defs>
  <g filter="url(#sigma-star-soft)">
    <path fill="url(#sigma-star-top)" fill-rule="evenodd" d="M 79.195,16.555 L 112.737,68.476 L 172.932,54.427 L 133.917,102.372 L 184.326,170.758 L 108.225,132.990 L 67.784,179.738 L 71.166,118.017 L 14.209,94.001 L 73.954,78.145 Z M 84.894,87.324 L 50.242,96.521 L 83.276,110.450 L 81.315,146.248 L 104.771,119.134 L 148.909,141.040 L 119.672,101.376 L 142.301,73.568 L 107.387,81.716 L 87.933,51.602 Z"/>
  </g>
  <path fill="none" stroke="url(#sigma-star-edge)" stroke-width="1.25" stroke-linejoin="round" opacity="0.5" d="M 79.195,16.555 L 112.737,68.476 L 172.932,54.427 L 133.917,102.372 L 184.326,170.758 L 108.225,132.990 L 67.784,179.738 L 71.166,118.017 L 14.209,94.001 L 73.954,78.145 Z"/>
</svg>