<svg width="32" height="32" viewBox="0 0 32 32" fill="none" xmlns="http://www.w3.org/2000/svg">
<rect x="0.5" y="31.5" width="31" height="31" rx="5.5" transform="rotate(-90 0.5 31.5)" fill="#FAFAFA"/>
<rect x="0.5" y="31.5" width="31" height="31" rx="5.5" transform="rotate(-90 0.5 31.5)" stroke="#94A3B8"/>
<path fill-rule="evenodd" clip-rule="evenodd" d="M11.4868 13.2405C11.8511 12.9023 12.4205 12.9234 12.7587 13.2876L15.9992 16.7773L19.2397 13.2876C19.5779 12.9234 20.1474 12.9023 20.5116 13.2405C20.8759 13.5787 20.897 14.1482 20.5587 14.5124L16.6587 18.7124C16.4884 18.8958 16.2495 19 15.9992 19C15.749 19 15.51 18.8958 15.3397 18.7124L11.4397 14.5124C11.1015 14.1482 11.1226 13.5787 11.4868 13.2405Z" fill="#94A3B8"/>
</svg>
